<svg width="24" height="24" viewBox="0 0 24 24" fill="none" xmlns="http://www.w3.org/2000/svg">
<path d="M14.9706 22.1468L14.9823 22.1537C16.0207 22.8148 17.2536 23.102 18.4772 22.9677C19.7009 22.8335 20.8422 22.286 21.7126 21.4155L22.4693 20.6588C22.8073 20.3204 22.9971 19.8617 22.9971 19.3835C22.9971 18.9052 22.8073 18.4465 22.4693 18.1081L19.2811 14.9219C18.9427 14.5839 18.484 14.3941 18.0058 14.3941C17.5275 14.3941 17.0688 14.5839 16.7304 14.9219C16.5631 15.0894 16.3643 15.2223 16.1456 15.313C15.9268 15.4037 15.6923 15.4504 15.4555 15.4504C15.2187 15.4504 14.9842 15.4037 14.7655 15.313C14.5467 15.2223 14.348 15.0894 14.1806 14.9219L9.07917 9.81941C8.7412 9.48102 8.55137 9.02231 8.55137 8.54404C8.55137 8.06578 8.7412 7.60707 9.07917 7.26868C9.24673 7.10133 9.37965 6.9026 9.47034 6.68384C9.56103 6.46509 9.60771 6.2306 9.60771 5.9938C9.60771 5.75699 9.56103 5.5225 9.47034 5.30375C9.37965 5.08499 9.24673 4.88626 9.07917 4.71892L5.89198 1.52781C5.55358 1.18983 5.09487 1 4.61661 1C4.13834 1 3.67963 1.18983 3.34124 1.52781L2.58452 2.28452C1.71423 3.15502 1.16672 4.29621 1.03235 5.51978C0.897976 6.74335 1.18477 7.97617 1.84541 9.01479L1.85323 9.02652C5.34684 14.1982 9.79969 18.6521 14.9706 22.1468V22.1468Z" stroke="white" stroke-width="1.2" stroke-linecap="round" stroke-linejoin="round"/>
</svg>
