<svg width="24" height="24" viewBox="0 0 24 24" fill="none" xmlns="http://www.w3.org/2000/svg">
<path d="M11.8398 14.2597C14.2809 14.2597 16.2597 12.2809 16.2597 9.83984C16.2597 7.39878 14.2809 5.41992 11.8398 5.41992C9.39878 5.41992 7.41992 7.39878 7.41992 9.83984C7.41992 12.2809 9.39878 14.2597 11.8398 14.2597Z" stroke="white" stroke-linecap="round" stroke-linejoin="round"/>
<path d="M20.6797 9.83983C20.6797 17.5992 13.871 21.9514 12.2042 22.9031C12.0931 22.9666 11.9673 23 11.8393 23C11.7114 23 11.5856 22.9666 11.4744 22.9031C9.80765 21.9504 3 17.5973 3 9.83983C3 7.49536 3.93134 5.24692 5.58913 3.58913C7.24691 1.93134 9.49536 1 11.8398 1C14.1843 1 16.4327 1.93134 18.0905 3.58913C19.7483 5.24692 20.6797 7.49536 20.6797 9.83983Z" stroke="white" stroke-linecap="round" stroke-linejoin="round"/>
</svg>
